<svg width="133" height="40" viewBox="0 0 133 40" fill="none" xmlns="http://www.w3.org/2000/svg">
<path d="M8.61893 29.9934C6.55623 29.9934 4.93387 29.5857 3.75187 28.7703C2.59305 27.955 1.78187 26.8484 1.31834 25.4506C0.854812 24.0295 0.623047 22.3987 0.623047 20.5582V10.4591C0.623047 8.5255 0.854812 6.84814 1.31834 5.42704C1.78187 4.00594 2.59305 2.91099 3.75187 2.1422C4.93387 1.37341 6.55623 0.989014 8.61893 0.989014C10.5658 0.989014 12.0838 1.32682 13.1731 2.00242C14.2856 2.65473 15.0736 3.59825 15.5371 4.83297C16.0006 6.0677 16.2324 7.50044 16.2324 9.13121V11.5075H11.2958V9.06132C11.2958 8.26924 11.2495 7.54704 11.1568 6.89473C11.0872 6.24242 10.867 5.72989 10.4962 5.35715C10.1486 4.9611 9.5344 4.76308 8.6537 4.76308C7.77299 4.76308 7.12405 4.97275 6.70687 5.39209C6.31287 5.78814 6.05793 6.33561 5.94205 7.03451C5.82617 7.71011 5.76822 8.4789 5.76822 9.34088V21.6415C5.76822 22.6666 5.84934 23.5169 6.01158 24.1925C6.17381 24.8448 6.46352 25.3457 6.8807 25.6952C7.32105 26.0213 7.91205 26.1844 8.6537 26.1844C9.51122 26.1844 10.1138 25.9864 10.4615 25.5903C10.8323 25.171 11.064 24.6235 11.1568 23.9479C11.2495 23.2723 11.2958 22.5152 11.2958 21.6765V19.1255H16.2324V21.3969C16.2324 23.0743 16.0122 24.5653 15.5719 25.8699C15.1315 27.1512 14.3551 28.1646 13.2426 28.9101C12.1533 29.6323 10.6121 29.9934 8.61893 29.9934Z" fill="white"/>
<path d="M19.8841 29.609V1.30352H24.0906V19.1604L31.8084 1.30352H35.2501V29.609H31.0088V11.4725L23.2562 29.609H19.8841Z" fill="white"/>
<path d="M39.6429 29.609V1.30352H52.7144V5.14748H44.7533V13.1848H45.8658C47.7663 13.1848 49.3539 13.4528 50.6286 13.9886C51.9264 14.5011 52.8999 15.3631 53.5488 16.5745C54.1977 17.7626 54.5222 19.3701 54.5222 21.3969C54.5222 22.9811 54.3252 24.309 53.9312 25.3807C53.5372 26.429 52.9462 27.2677 52.1582 27.8967C51.3934 28.5257 50.4663 28.9684 49.377 29.2246C48.2877 29.4809 47.0478 29.609 45.6572 29.609H39.6429ZM44.7533 26.1145H45.692C46.6654 26.1145 47.4534 25.9747 48.056 25.6952C48.6586 25.4156 49.0989 24.9264 49.377 24.2275C49.6551 23.5053 49.7826 22.5268 49.7594 21.2921C49.7363 19.8244 49.435 18.7062 48.8556 17.9374C48.2993 17.1686 47.2216 16.7842 45.6224 16.7842H44.7533V26.1145Z" fill="white"/>
<path d="M57.908 29.609V1.30352H62.1145V19.1604L69.8323 1.30352H73.274V29.609H69.0327V11.4725L61.2801 29.609H57.908Z" fill="white"/>
<path d="M77.5973 29.609V1.30352H85.8713C87.5632 1.30352 88.9306 1.61802 89.9735 2.24704C91.0396 2.87605 91.816 3.79627 92.3028 5.0077C92.8126 6.19583 93.0676 7.64022 93.0676 9.34088C93.0676 11.1813 92.7547 12.6723 92.1289 13.8139C91.5032 14.9321 90.6225 15.7475 89.4868 16.26C88.3743 16.7725 87.0533 17.0288 85.5236 17.0288H82.7425V29.609H77.5973ZM82.7425 13.3945H84.6893C85.6163 13.3945 86.3348 13.2664 86.8447 13.0101C87.3778 12.7306 87.737 12.2996 87.9224 11.7171C88.131 11.1114 88.2353 10.3077 88.2353 9.30594C88.2353 8.28088 88.1542 7.45385 87.9919 6.82484C87.8529 6.17253 87.5284 5.69495 87.0185 5.39209C86.5318 5.08923 85.7554 4.93781 84.6893 4.93781H82.7425V13.3945Z" fill="white"/>
<path d="M94.192 29.609L99.8239 16.9589C98.6651 16.3532 97.7264 15.4213 97.0079 14.1633C96.2895 12.882 95.9302 11.3095 95.9302 9.44572C95.9302 7.58198 96.2663 6.05605 96.9384 4.86792C97.6105 3.65649 98.6187 2.75956 99.9629 2.17715C101.33 1.59473 103.057 1.30352 105.143 1.30352H111.644V29.609H106.533V18.147H104.9C104.853 18.147 104.749 18.147 104.587 18.147C104.424 18.147 104.32 18.147 104.274 18.147L99.7891 29.609H94.192ZM105.386 14.5128H106.533V4.90286H105.282C103.775 4.90286 102.64 5.27561 101.875 6.0211C101.11 6.7433 100.728 7.88484 100.728 9.44572C100.728 11.0532 101.064 12.2996 101.736 13.1848C102.431 14.0701 103.648 14.5128 105.386 14.5128Z" fill="white"/>
<path d="M116.03 29.609V1.30352H121.141V13.1848H122.184L126.738 1.30352H131.848L126.494 14.6525L132.265 29.609H127.051L122.184 16.5745H121.141V29.609H116.03Z" fill="white"/>
<path d="M1.38146 38.2696V35.0791H0.693122V34.5666H2.75815V35.0791H2.06343V38.2696H1.38146Z" fill="white"/>
<path d="M4.14658 38.3208C3.87464 38.3208 3.66007 38.2653 3.50285 38.1542C3.34564 38.0432 3.23304 37.8852 3.16506 37.6802C3.10132 37.4751 3.06945 37.2338 3.06945 36.9562V35.8799C3.06945 35.6023 3.10132 35.361 3.16506 35.156C3.23304 34.9509 3.34564 34.7929 3.50285 34.6819C3.66007 34.5708 3.87464 34.5153 4.14658 34.5153C4.41852 34.5153 4.63097 34.5708 4.78393 34.6819C4.94115 34.7929 5.05162 34.9509 5.11536 35.156C5.18334 35.361 5.21733 35.6023 5.21733 35.8799V36.9562C5.21733 37.2338 5.18334 37.4751 5.11536 37.6802C5.05162 37.8852 4.94115 38.0432 4.78393 38.1542C4.63097 38.2653 4.41852 38.3208 4.14658 38.3208ZM4.14658 37.8147C4.2783 37.8147 4.36965 37.7763 4.42064 37.6994C4.47588 37.6225 4.50775 37.5221 4.51624 37.3983C4.52899 37.2701 4.53536 37.1377 4.53536 37.0011V35.8415C4.53536 35.7005 4.52899 35.5681 4.51624 35.4443C4.50775 35.3204 4.47588 35.22 4.42064 35.1431C4.36965 35.062 4.2783 35.0214 4.14658 35.0214C4.01486 35.0214 3.92138 35.062 3.86614 35.1431C3.81091 35.22 3.77691 35.3204 3.76417 35.4443C3.75567 35.5681 3.75142 35.7005 3.75142 35.8415V37.0011C3.75142 37.1377 3.75567 37.2701 3.76417 37.3983C3.77691 37.5221 3.81091 37.6225 3.86614 37.6994C3.92138 37.7763 4.01486 37.8147 4.14658 37.8147Z" fill="white"/>
<path d="M5.84069 39.4868V34.5666H6.52266V34.8613C6.60339 34.7673 6.70112 34.6861 6.81584 34.6178C6.93057 34.5495 7.06654 34.5153 7.22375 34.5153C7.41496 34.5153 7.5658 34.5666 7.67627 34.6691C7.79099 34.7673 7.87597 34.8933 7.93121 35.047C7.98645 35.1965 8.02257 35.3503 8.03956 35.5083C8.05656 35.6621 8.06506 35.7945 8.06506 35.9055V36.8025C8.06506 37.063 8.03956 37.3107 7.98857 37.5456C7.93759 37.7763 7.84411 37.9642 7.70814 38.1094C7.57642 38.2503 7.38946 38.3208 7.14727 38.3208C7.01555 38.3208 6.8987 38.2888 6.79672 38.2247C6.69475 38.1564 6.60339 38.0795 6.52266 37.9941V39.4868H5.84069ZM7.01342 37.7827C7.1324 37.7827 7.21738 37.74 7.26836 37.6545C7.31935 37.5648 7.35122 37.4452 7.36397 37.2958C7.37671 37.1463 7.38309 36.9818 7.38309 36.8025V35.9055C7.38309 35.7518 7.37459 35.6108 7.35759 35.4827C7.3406 35.3503 7.30448 35.2457 7.24924 35.1688C7.19401 35.0919 7.1069 35.0535 6.98793 35.0535C6.8987 35.0535 6.81372 35.0727 6.73299 35.1111C6.65226 35.1496 6.58215 35.1944 6.52266 35.2457V37.6161C6.5864 37.6631 6.65863 37.7036 6.73936 37.7378C6.82009 37.7677 6.91145 37.7827 7.01342 37.7827Z" fill="white"/>
<path d="M8.68513 38.2696V34.5666H10.1702V35.0599H9.3671V38.2696H8.68513Z" fill="white"/>
<path d="M11.5346 38.3208C11.2627 38.3208 11.0481 38.2653 10.8909 38.1542C10.7337 38.0432 10.6211 37.8852 10.5531 37.6802C10.4894 37.4751 10.4575 37.2338 10.4575 36.9562V35.8799C10.4575 35.6023 10.4894 35.361 10.5531 35.156C10.6211 34.9509 10.7337 34.7929 10.8909 34.6819C11.0481 34.5708 11.2627 34.5153 11.5346 34.5153C11.8066 34.5153 12.019 34.5708 12.172 34.6819C12.3292 34.7929 12.4397 34.9509 12.5034 35.156C12.5714 35.361 12.6054 35.6023 12.6054 35.8799V36.9562C12.6054 37.2338 12.5714 37.4751 12.5034 37.6802C12.4397 37.8852 12.3292 38.0432 12.172 38.1542C12.019 38.2653 11.8066 38.3208 11.5346 38.3208ZM11.5346 37.8147C11.6664 37.8147 11.7577 37.7763 11.8087 37.6994C11.8639 37.6225 11.8958 37.5221 11.9043 37.3983C11.9171 37.2701 11.9234 37.1377 11.9234 37.0011V35.8415C11.9234 35.7005 11.9171 35.5681 11.9043 35.4443C11.8958 35.3204 11.8639 35.22 11.8087 35.1431C11.7577 35.062 11.6664 35.0214 11.5346 35.0214C11.4029 35.0214 11.3094 35.062 11.2542 35.1431C11.199 35.22 11.165 35.3204 11.1522 35.4443C11.1437 35.5681 11.1395 35.7005 11.1395 35.8415V37.0011C11.1395 37.1377 11.1437 37.2701 11.1522 37.3983C11.165 37.5221 11.199 37.6225 11.2542 37.6994C11.3094 37.7763 11.4029 37.8147 11.5346 37.8147Z" fill="white"/>
<path d="M13.2288 38.2696V34.5666H14.2613C14.512 34.5666 14.7074 34.6093 14.8476 34.6947C14.9921 34.7758 15.0941 34.8847 15.1536 35.0214C15.2173 35.1538 15.2513 35.2969 15.2555 35.4507C15.2598 35.6343 15.23 35.7988 15.1663 35.944C15.1026 36.0892 14.9709 36.1917 14.7712 36.2515C14.9241 36.2814 15.041 36.3455 15.1217 36.4437C15.2067 36.5376 15.264 36.6508 15.2938 36.7832C15.3278 36.9156 15.3448 37.0523 15.3448 37.1933C15.3448 37.4068 15.3129 37.5947 15.2492 37.757C15.1897 37.9193 15.0835 38.0453 14.9305 38.135C14.7818 38.2247 14.5693 38.2696 14.2931 38.2696H13.2288ZM13.898 37.7506H14.1402C14.2379 37.7506 14.3271 37.7378 14.4079 37.7122C14.4886 37.6823 14.5523 37.6246 14.5991 37.5392C14.6501 37.4538 14.6756 37.3299 14.6756 37.1676C14.6756 36.9754 14.6522 36.8366 14.6054 36.7512C14.563 36.6615 14.5035 36.606 14.427 36.5846C14.3548 36.5633 14.2698 36.5526 14.172 36.5526H13.898V37.7506ZM13.898 36.0593H14.2294C14.3611 36.0593 14.4652 36.0209 14.5417 35.944C14.6182 35.8671 14.6564 35.7304 14.6564 35.534C14.6564 35.3588 14.6118 35.2371 14.5226 35.1688C14.4334 35.1004 14.3123 35.0663 14.1593 35.0663H13.898V36.0593Z" fill="white"/>
<path d="M15.874 38.2696V34.5666H16.556V36.0977C16.5645 36.0977 16.5751 36.0977 16.5879 36.0977C16.6049 36.0977 16.6197 36.0977 16.6325 36.0977C16.6452 36.0977 16.6558 36.0977 16.6643 36.0977C16.915 36.102 17.1275 36.1212 17.3017 36.1554C17.4802 36.1853 17.6246 36.2408 17.7351 36.322C17.8456 36.3988 17.9263 36.5078 17.9773 36.6487C18.0283 36.7854 18.0538 36.9626 18.0538 37.1804C18.0538 37.3812 18.0283 37.552 17.9773 37.693C17.9263 37.8296 17.8434 37.9407 17.7287 38.0261C17.614 38.1115 17.4632 38.1735 17.2762 38.2119C17.0892 38.2503 16.8619 38.2696 16.5942 38.2696H15.874ZM16.556 37.8659H16.5942C16.8109 37.8659 16.9809 37.8467 17.1041 37.8083C17.2273 37.7698 17.3144 37.7015 17.3654 37.6033C17.4164 37.5008 17.4419 37.3577 17.4419 37.174C17.4419 37.0075 17.4185 36.8772 17.3718 36.7832C17.3293 36.685 17.2486 36.6145 17.1296 36.5718C17.0149 36.5248 16.847 36.5013 16.6261 36.5013C16.6219 36.5013 16.6112 36.5013 16.5942 36.5013C16.5772 36.5013 16.5645 36.5013 16.556 36.5013V37.8659ZM18.4744 38.2696V34.5666H19.1564V38.2696H18.4744Z" fill="white"/>
<path d="M19.845 38.2696V34.5666H20.4187V37.0587L21.5276 34.5666H22.063V38.2696H21.5022V35.7582L20.3995 38.2696H19.845ZM20.9731 34.1629C20.6672 34.1629 20.4505 34.0797 20.323 33.9131C20.1998 33.7465 20.1382 33.5394 20.1382 33.2916H20.5334C20.5376 33.4454 20.5716 33.565 20.6354 33.6504C20.7033 33.7316 20.8159 33.7721 20.9731 33.7721C21.1346 33.7721 21.2472 33.7294 21.3109 33.644C21.3789 33.5586 21.4129 33.4411 21.4129 33.2916H21.8145C21.8145 33.5394 21.7507 33.7465 21.6232 33.9131C21.5 34.0797 21.2833 34.1629 20.9731 34.1629Z" fill="white"/>
<path d="M23.883 39.2113V37.8147C24.0104 37.7165 24.1273 37.599 24.2335 37.4623C24.3397 37.3257 24.4332 37.1527 24.5139 36.9434C24.5947 36.7341 24.6584 36.4757 24.7051 36.1682C24.7519 35.8607 24.7774 35.4891 24.7816 35.0535L24.7944 34.5666H26.4579V37.7827H26.904V39.2113H26.4069L26.3495 38.2696H24.4375L24.3801 39.2113H23.883ZM24.5458 37.7827H25.8014V35.0599H25.3234L25.3106 35.1944C25.3064 35.6471 25.283 36.0251 25.2405 36.3284C25.2023 36.6273 25.147 36.8729 25.0748 37.0651C25.0068 37.2531 24.9261 37.4025 24.8326 37.5136C24.7434 37.6246 24.6478 37.7143 24.5458 37.7827Z" fill="white"/>
<path d="M28.3025 38.3208C28.0306 38.3208 27.816 38.2653 27.6588 38.1542C27.5016 38.0432 27.389 37.8852 27.321 37.6802C27.2572 37.4751 27.2254 37.2338 27.2254 36.9562V35.8799C27.2254 35.6023 27.2572 35.361 27.321 35.156C27.389 34.9509 27.5016 34.7929 27.6588 34.6819C27.816 34.5708 28.0306 34.5153 28.3025 34.5153C28.5744 34.5153 28.7869 34.5708 28.9399 34.6819C29.0971 34.7929 29.2076 34.9509 29.2713 35.156C29.3393 35.361 29.3733 35.6023 29.3733 35.8799V36.9562C29.3733 37.2338 29.3393 37.4751 29.2713 37.6802C29.2076 37.8852 29.0971 38.0432 28.9399 38.1542C28.7869 38.2653 28.5744 38.3208 28.3025 38.3208ZM28.3025 37.8147C28.4342 37.8147 28.5256 37.7763 28.5766 37.6994C28.6318 37.6225 28.6637 37.5221 28.6722 37.3983C28.6849 37.2701 28.6913 37.1377 28.6913 37.0011V35.8415C28.6913 35.7005 28.6849 35.5681 28.6722 35.4443C28.6637 35.3204 28.6318 35.22 28.5766 35.1431C28.5256 35.062 28.4342 35.0214 28.3025 35.0214C28.1708 35.0214 28.0773 35.062 28.0221 35.1431C27.9668 35.22 27.9328 35.3204 27.9201 35.4443C27.9116 35.5681 27.9074 35.7005 27.9074 35.8415V37.0011C27.9074 37.1377 27.9116 37.2701 27.9201 37.3983C27.9328 37.5221 27.9668 37.6225 28.0221 37.6994C28.0773 37.7763 28.1708 37.8147 28.3025 37.8147Z" fill="white"/>
<path d="M29.9775 38.2696L30.0157 34.5666H30.5193L31.3351 36.8409L32.1572 34.5666H32.6608L32.699 38.2696H32.1254V36.0593L31.4434 37.9044H31.2331L30.5511 36.0721V38.2696H29.9775Z" fill="white"/>
</svg>
